<?xml version="1.0" encoding="utf-8"?>
<!-- Generator: Adobe Illustrator 28.1.0, SVG Export Plug-In . SVG Version: 6.00 Build 0)  -->
<svg version="1.1" id="Layer_1" xmlns="http://www.w3.org/2000/svg" xmlns:xlink="http://www.w3.org/1999/xlink" x="0px" y="0px"
	 viewBox="0 0 1000 181.61" style="enable-background:new 0 0 1000 181.61;" xml:space="preserve">
<g>
	<path d="M236.47,96.74c0-1.47,0.38-2.77,1.15-3.9c0.77-1.13,1.83-2.02,3.18-2.67c1.35-0.65,2.89-0.97,4.62-0.97
		c1.76,0,3.27,0.31,4.54,0.92c1.27,0.61,2.25,1.48,2.95,2.6c0.69,1.12,1.04,2.45,1.04,3.98h-5.3c0-0.86-0.3-1.53-0.89-2.02
		c-0.59-0.49-1.39-0.74-2.4-0.74c-1.08,0-1.94,0.23-2.58,0.69c-0.65,0.46-0.97,1.1-0.97,1.91c0,0.75,0.2,1.32,0.59,1.71
		s1.02,0.68,1.88,0.86l3.65,0.76c2.17,0.44,3.79,1.2,4.84,2.29c1.05,1.09,1.58,2.6,1.58,4.53c0,1.56-0.38,2.92-1.15,4.1
		c-0.77,1.17-1.85,2.08-3.24,2.72c-1.39,0.64-3.02,0.95-4.89,0.95c-1.8,0-3.37-0.31-4.72-0.92c-1.35-0.61-2.39-1.49-3.13-2.62
		c-0.74-1.13-1.1-2.45-1.1-3.97h5.3c0,0.88,0.32,1.56,0.95,2.04c0.64,0.48,1.55,0.72,2.73,0.72c1.21,0,2.16-0.22,2.86-0.67
		s1.05-1.06,1.05-1.83c0-0.68-0.17-1.21-0.51-1.58c-0.34-0.37-0.92-0.64-1.73-0.79l-3.72-0.76c-2.17-0.44-3.81-1.27-4.92-2.5
		C237.03,100.35,236.47,98.74,236.47,96.74z"/>
	<path d="M257.7,104.87V89.66h5.33v14.84c0,1.54,0.41,2.71,1.22,3.52c0.81,0.81,1.96,1.22,3.46,1.22c1.51,0,2.68-0.42,3.51-1.25
		c0.82-0.83,1.23-2,1.23-3.49V89.66h5.33v15.21c0,1.93-0.41,3.61-1.23,5.04c-0.82,1.43-1.99,2.53-3.51,3.32s-3.29,1.19-5.33,1.19
		c-2.02,0-3.78-0.39-5.28-1.17c-1.5-0.78-2.67-1.89-3.49-3.32S257.7,106.8,257.7,104.87z"/>
	<path d="M288.02,89.66v24.36h-5.33V89.66H288.02z M296.57,104.51h-13.53V99.7h13.53V104.51z M298.19,94.6h-15.01v-4.94h15.01V94.6z
		"/>
	<path d="M307.17,89.66v24.36h-5.33V89.66H307.17z M315.73,104.51H302.2V99.7h13.53V104.51z M317.34,94.6h-15.01v-4.94h15.01V94.6z"
		/>
	<path d="M322.84,114.02h-5.56l8.69-24.36h5.2l8.66,24.36h-5.66l-1.71-5.13h-7.87L322.84,114.02z M327.88,99.21l-1.74,5.2h4.81
		l-1.74-5.2c-0.13-0.42-0.26-0.84-0.4-1.28c-0.13-0.44-0.22-0.8-0.26-1.09c-0.04,0.29-0.13,0.64-0.25,1.07
		C328.17,98.34,328.03,98.77,327.88,99.21z"/>
	<path d="M360.92,114.02h-9.55V89.66h9.22c2.39,0,4.49,0.52,6.3,1.55c1.81,1.03,3.23,2.47,4.26,4.31c1.03,1.84,1.55,3.97,1.55,6.39
		c0,2.37-0.5,4.47-1.5,6.29c-1,1.82-2.38,3.25-4.15,4.28C365.29,113.51,363.25,114.02,360.92,114.02z M356.71,92.1v19.55l-2.53-2.57
		h6.22c1.4,0,2.61-0.29,3.6-0.86c1-0.57,1.76-1.39,2.29-2.47c0.53-1.07,0.79-2.36,0.79-3.85c0-1.54-0.28-2.85-0.84-3.93
		c-0.56-1.09-1.36-1.92-2.4-2.5c-1.04-0.58-2.3-0.87-3.77-0.87h-5.89L356.71,92.1z"/>
	<path d="M378.43,114.02h-5.56l8.69-24.36h5.2l8.66,24.36h-5.66l-1.71-5.13h-7.87L378.43,114.02z M383.47,99.21l-1.74,5.2h4.81
		l-1.75-5.2c-0.13-0.42-0.26-0.84-0.39-1.28c-0.13-0.44-0.22-0.8-0.26-1.09c-0.04,0.29-0.12,0.64-0.25,1.07
		C383.76,98.34,383.62,98.77,383.47,99.21z"/>
	<path d="M403.58,114.02h-5.33V89.66h9.41c2.96,0,5.25,0.69,6.86,2.06c1.61,1.37,2.42,3.32,2.42,5.84c0,1.58-0.33,2.93-1,4.05
		s-1.68,2.03-3.04,2.73l4.28,9.68h-5.83l-3.65-8.52h-4.11V114.02z M403.58,94.4v6.42h4.05c1.16,0,2.07-0.28,2.72-0.86
		c0.65-0.57,0.97-1.37,0.97-2.4c0-1.03-0.31-1.82-0.94-2.35c-0.62-0.54-1.53-0.81-2.71-0.81H403.58z"/>
	<path d="M419.54,96.74c0-1.47,0.38-2.77,1.15-3.9c0.77-1.13,1.83-2.02,3.18-2.67c1.35-0.65,2.89-0.97,4.62-0.97
		c1.75,0,3.27,0.31,4.54,0.92c1.27,0.61,2.25,1.48,2.95,2.6c0.69,1.12,1.04,2.45,1.04,3.98h-5.3c0-0.86-0.3-1.53-0.89-2.02
		c-0.59-0.49-1.39-0.74-2.4-0.74c-1.08,0-1.94,0.23-2.58,0.69c-0.65,0.46-0.97,1.1-0.97,1.91c0,0.75,0.2,1.32,0.59,1.71
		c0.4,0.4,1.02,0.68,1.88,0.86l3.65,0.76c2.17,0.44,3.79,1.2,4.84,2.29c1.05,1.09,1.58,2.6,1.58,4.53c0,1.56-0.38,2.92-1.15,4.1
		c-0.77,1.17-1.85,2.08-3.24,2.72c-1.39,0.64-3.02,0.95-4.89,0.95c-1.8,0-3.37-0.31-4.72-0.92c-1.35-0.61-2.39-1.49-3.13-2.62
		c-0.74-1.13-1.1-2.45-1.1-3.97h5.3c0,0.88,0.32,1.56,0.95,2.04c0.64,0.48,1.55,0.72,2.73,0.72c1.21,0,2.16-0.22,2.86-0.67
		s1.05-1.06,1.05-1.83c0-0.68-0.17-1.21-0.51-1.58s-0.92-0.64-1.73-0.79l-3.72-0.76c-2.17-0.44-3.81-1.27-4.92-2.5
		C420.1,100.35,419.54,98.74,419.54,96.74z"/>
	<path d="M460.19,114.42c-2.44,0-4.54-0.51-6.32-1.53c-1.78-1.02-3.15-2.47-4.11-4.34c-0.97-1.88-1.45-4.1-1.45-6.67
		c0-2.54,0.5-4.76,1.51-6.65c1.01-1.89,2.42-3.35,4.25-4.39c1.82-1.04,3.94-1.56,6.35-1.56c2.04,0,3.86,0.37,5.45,1.1
		c1.59,0.74,2.89,1.77,3.9,3.11c1.01,1.34,1.63,2.92,1.88,4.74h-5.63c-0.35-1.23-1.03-2.17-2.02-2.83c-1-0.66-2.23-0.99-3.7-0.99
		c-1.32,0-2.45,0.3-3.41,0.89c-0.95,0.59-1.68,1.44-2.19,2.55s-0.76,2.44-0.76,4c0,1.51,0.26,2.83,0.77,3.95s1.25,1.98,2.21,2.58
		c0.95,0.6,2.08,0.91,3.37,0.91c1.49,0,2.76-0.35,3.8-1.04c1.04-0.69,1.73-1.64,2.06-2.85h5.53c-0.29,1.8-0.95,3.38-1.99,4.74
		c-1.04,1.36-2.38,2.41-4,3.16S462.23,114.42,460.19,114.42z"/>
	<path d="M497.75,101.81c0,2.48-0.5,4.67-1.51,6.57c-1.01,1.9-2.41,3.38-4.21,4.44c-1.8,1.06-3.88,1.6-6.25,1.6
		c-2.35,0-4.42-0.53-6.21-1.6s-3.18-2.54-4.18-4.43c-1-1.89-1.5-4.07-1.5-6.55c0-2.48,0.5-4.67,1.51-6.57
		c1.01-1.9,2.41-3.38,4.2-4.44c1.79-1.06,3.86-1.6,6.2-1.6c2.37,0,4.45,0.53,6.24,1.6c1.79,1.06,3.19,2.54,4.2,4.43
		C497.24,97.15,497.75,99.33,497.75,101.81z M492.12,101.81c0-1.56-0.25-2.89-0.76-4c-0.5-1.11-1.22-1.96-2.16-2.55
		c-0.93-0.59-2.06-0.89-3.37-0.89s-2.45,0.3-3.39,0.89s-1.67,1.44-2.17,2.55c-0.5,1.11-0.76,2.44-0.76,4c0,1.56,0.25,2.9,0.76,4.02
		s1.23,1.98,2.17,2.57s2.07,0.89,3.39,0.89s2.44-0.3,3.37-0.91c0.93-0.6,1.65-1.46,2.16-2.58S492.12,103.35,492.12,101.81z"/>
	<path d="M500.91,107.37v-4.48h11.26v4.48H500.91z"/>
	<path d="M539.19,101.81c0,2.48-0.5,4.67-1.51,6.57c-1.01,1.9-2.41,3.38-4.21,4.44c-1.8,1.06-3.88,1.6-6.25,1.6
		c-2.35,0-4.42-0.53-6.21-1.6s-3.18-2.54-4.18-4.43c-1-1.89-1.5-4.07-1.5-6.55c0-2.48,0.5-4.67,1.51-6.57
		c1.01-1.9,2.41-3.38,4.2-4.44c1.79-1.06,3.86-1.6,6.2-1.6c2.37,0,4.45,0.53,6.24,1.6c1.79,1.06,3.19,2.54,4.2,4.43
		C538.68,97.15,539.19,99.33,539.19,101.81z M533.56,101.81c0-1.56-0.25-2.89-0.76-4c-0.5-1.11-1.22-1.96-2.16-2.55
		c-0.93-0.59-2.06-0.89-3.37-0.89s-2.45,0.3-3.39,0.89s-1.67,1.44-2.17,2.55c-0.5,1.11-0.76,2.44-0.76,4c0,1.56,0.25,2.9,0.76,4.02
		s1.23,1.98,2.17,2.57s2.07,0.89,3.39,0.89s2.44-0.3,3.37-0.91c0.93-0.6,1.65-1.46,2.16-2.58S533.56,103.35,533.56,101.81z"/>
	<path d="M548.24,114.02h-5.33V89.66h9.41c2.96,0,5.25,0.69,6.86,2.06c1.61,1.37,2.42,3.32,2.42,5.84c0,1.58-0.33,2.93-1,4.05
		s-1.68,2.03-3.04,2.73l4.28,9.68h-5.83l-3.65-8.52h-4.11V114.02z M548.24,94.4v6.42h4.05c1.16,0,2.07-0.28,2.72-0.86
		c0.65-0.57,0.97-1.37,0.97-2.4c0-1.03-0.31-1.82-0.94-2.35c-0.62-0.54-1.53-0.81-2.71-0.81H548.24z"/>
	<path d="M575.09,114.02h-9.54V89.66h9.22c2.39,0,4.49,0.52,6.3,1.55c1.81,1.03,3.23,2.47,4.26,4.31c1.03,1.84,1.55,3.97,1.55,6.39
		c0,2.37-0.5,4.47-1.5,6.29c-1,1.82-2.38,3.25-4.15,4.28C579.47,113.51,577.42,114.02,575.09,114.02z M570.88,92.1v19.55l-2.53-2.57
		h6.22c1.4,0,2.61-0.29,3.6-0.86c1-0.57,1.76-1.39,2.29-2.47c0.53-1.07,0.79-2.36,0.79-3.85c0-1.54-0.28-2.85-0.84-3.93
		c-0.56-1.09-1.36-1.92-2.4-2.5c-1.04-0.58-2.3-0.87-3.77-0.87h-5.89L570.88,92.1z"/>
	<path d="M595.93,89.66v24.36h-5.33V89.66H595.93z"/>
	<path d="M606.27,114.02H601V89.66h5.27l11.92,17.97h-1.65V89.66h5.27v24.36h-5.27l-11.92-17.94h1.65V114.02z"/>
	<path d="M630.19,114.02h-5.56l8.69-24.36h5.2l8.66,24.36h-5.66l-1.71-5.13h-7.87L630.19,114.02z M635.23,99.21l-1.74,5.2h4.81
		l-1.75-5.2c-0.13-0.42-0.26-0.84-0.39-1.28c-0.13-0.44-0.22-0.8-0.26-1.09c-0.04,0.29-0.13,0.64-0.25,1.07
		C635.52,98.34,635.38,98.77,635.23,99.21z"/>
	<path d="M645.99,94.6v-4.94h19.16v4.94H645.99z M658.24,92.23v21.79h-5.33V92.23H658.24z"/>
	<path d="M673.67,89.66v24.36h-5.33V89.66H673.67z"/>
	<path d="M701.26,101.81c0,2.48-0.5,4.67-1.51,6.57c-1.01,1.9-2.41,3.38-4.21,4.44c-1.8,1.06-3.88,1.6-6.25,1.6
		c-2.35,0-4.42-0.53-6.21-1.6s-3.18-2.54-4.18-4.43c-1-1.89-1.5-4.07-1.5-6.55c0-2.48,0.5-4.67,1.51-6.57
		c1.01-1.9,2.41-3.38,4.2-4.44c1.79-1.06,3.86-1.6,6.2-1.6c2.37,0,4.45,0.53,6.24,1.6c1.79,1.06,3.19,2.54,4.2,4.43
		C700.75,97.15,701.26,99.33,701.26,101.81z M695.63,101.81c0-1.56-0.25-2.89-0.76-4c-0.5-1.11-1.22-1.96-2.16-2.55
		c-0.93-0.59-2.06-0.89-3.37-0.89s-2.45,0.3-3.39,0.89s-1.67,1.44-2.17,2.55c-0.5,1.11-0.76,2.44-0.76,4c0,1.56,0.25,2.9,0.76,4.02
		s1.23,1.98,2.17,2.57s2.07,0.89,3.39,0.89s2.44-0.3,3.37-0.91c0.93-0.6,1.65-1.46,2.16-2.58S695.63,103.35,695.63,101.81z"/>
	<path d="M710.24,114.02h-5.27V89.66h5.27l11.92,17.97h-1.65V89.66h5.27v24.36h-5.27L708.6,96.08h1.65V114.02z"/>
</g>
<g>
	<path d="M254.68,43.42v-8.31l5.31-2.86v8.31L254.68,43.42z"/>
	<path d="M284.79,54.28h4.22v7.27h-4.91c-2.54,0-4.62-0.76-6.22-2.27c-1.15,0.64-2.54,0.95-4.18,0.95c-2.91,0-5.24-1.07-6.99-3.22
		c-1.45-1.76-2.18-3.83-2.18-6.22c0-3.06,1.04-5.57,3.13-7.54c1.73-1.57,3.66-2.36,5.81-2.36c0.7,0,1.3,0.06,1.82,0.18v-0.64
		l7.49-3.95v15.8c0,0.79,0.14,1.32,0.41,1.59S284,54.28,284.79,54.28z M269.66,35.89c-1.12,0-2.03-0.36-2.73-1.07
		c-0.7-0.71-1.04-1.63-1.04-2.75s0.35-2.02,1.04-2.7c0.7-0.68,1.6-1.02,2.73-1.02c1.12,0,2.02,0.34,2.7,1.02
		c0.68,0.68,1.02,1.58,1.02,2.7c0,1.15-0.34,2.07-1.02,2.77C271.68,35.54,270.78,35.89,269.66,35.89z M275.29,48.19
		c-0.36-0.15-0.77-0.23-1.23-0.23c-0.67,0-1.2,0.27-1.59,0.82c-0.39,0.54-0.59,1.27-0.59,2.18c0,1.97,0.76,2.95,2.27,2.95
		c0.42,0,0.82-0.09,1.18-0.27c-0.03-0.21-0.05-0.54-0.05-1V48.19z M277.84,35.89c-1.12,0-2.03-0.36-2.73-1.07
		c-0.7-0.71-1.04-1.63-1.04-2.75s0.35-2.02,1.04-2.7c0.7-0.68,1.6-1.02,2.73-1.02c1.12,0,2.02,0.34,2.7,1.02
		c0.68,0.68,1.02,1.58,1.02,2.7c0,1.15-0.34,2.07-1.02,2.77C279.86,35.54,278.96,35.89,277.84,35.89z"/>
	<path d="M305.54,18.13l4.18-2.32v5.72c0,1.21-0.44,2.2-1.32,2.98c-0.88,0.77-2.01,1.16-3.41,1.16c-1.03,0-1.91-0.21-2.63-0.64
		c-0.85,0.42-1.76,0.64-2.73,0.64c-1.36,0-2.48-0.39-3.34-1.16s-1.29-1.76-1.29-2.98v-2.5l4.18-2.32v4.5c0,0.3,0.18,0.45,0.54,0.45
		s0.54-0.15,0.54-0.45v-2.63l4.18-2.32v4.95c0,0.3,0.18,0.45,0.55,0.45c0.36,0,0.54-0.15,0.54-0.45V18.13z"/>
	<path d="M310.36,54.28h5.36v7.27h-9.63c-1.67,0-3.06-0.12-4.18-0.36c-1.12,0.24-2.51,0.36-4.18,0.36h-9.63v-7.27h5.36
		c-0.64-1.42-0.95-2.82-0.95-4.18c0-3.09,0.92-5.59,2.77-7.49c1.73-1.76,3.94-2.63,6.63-2.63c3.09,0,5.51,1.12,7.27,3.36
		c1.42,1.85,2.13,4.1,2.13,6.77C311.31,51.46,310.99,52.86,310.36,54.28z M301.82,38.16c-1.12,0-2.03-0.36-2.72-1.07
		c-0.7-0.71-1.04-1.63-1.04-2.75c0-1.12,0.35-2.02,1.04-2.7c0.7-0.68,1.6-1.02,2.72-1.02s2.02,0.34,2.7,1.02
		c0.68,0.68,1.02,1.58,1.02,2.7c0,1.15-0.34,2.07-1.02,2.77C303.84,37.81,302.94,38.16,301.82,38.16z M301.91,53.55
		c1.42-0.94,2.13-2.26,2.13-3.95c0-1.73-0.71-2.59-2.13-2.59c-1.42,0-2.13,0.85-2.13,2.54C299.77,51.31,300.48,52.64,301.91,53.55z"
		/>
	<path d="M330.34,54.28c1.57-4.18,3.75-7.55,6.54-10.13c3.06-2.79,6.51-4.18,10.35-4.18c3.72,0,6.69,1.29,8.9,3.86
		c1.91,2.18,2.86,4.84,2.86,7.99v0.82c0,2.91-0.91,5.16-2.73,6.77c-1.57,1.42-3.6,2.13-6.09,2.13h-20.35
		c-1.94,0-3.62-0.45-5.04-1.36c-1.48,0.91-3.18,1.36-5.09,1.36h-4.9v-7.27h4.22c0.79,0,1.32-0.14,1.59-0.41s0.41-0.8,0.41-1.59
		v-5.63l7.49-3.95v9.58c0,0.76,0.12,1.27,0.36,1.54C329.13,54.1,329.61,54.25,330.34,54.28z M351.5,52.28v-0.45
		c0-1.45-0.39-2.62-1.16-3.5c-0.77-0.88-1.79-1.32-3.07-1.32c-1.82,0-3.56,0.65-5.25,1.95c-1.68,1.3-3.07,3.07-4.16,5.31h12.08
		c0.73,0,1.17-0.1,1.32-0.29C351.43,53.79,351.5,53.22,351.5,52.28z"/>
	<path d="M364.9,43.42v-8.31l5.31-2.86v8.31L364.9,43.42z"/>
	<path d="M436.98,44.83l7.49-3.95v11.76c0,2.82-0.86,5.04-2.59,6.68c-1.51,1.39-3.45,2.13-5.81,2.23h-5.81
		c-1.94,0-3.62-0.45-5.04-1.36c-1.3,0.82-2.85,1.27-4.63,1.36h-5.81c-0.61,0-1.18-0.05-1.73-0.14c-0.7,2.85-2.24,5.06-4.63,6.63
		c-2.15,1.42-4.74,2.13-7.77,2.13c-4.24,0-7.52-1.5-9.86-4.5c-1.82-2.3-2.72-5.03-2.72-8.17c0-2.24,0.5-4.22,1.5-5.95l7.08-1.5
		c-1.03,1.97-1.54,4.01-1.54,6.13c0,2.03,0.5,3.66,1.5,4.88c1,1.23,2.35,1.84,4.04,1.84c3.54,0,5.31-1.57,5.31-4.72V46.65l7.49-3.95
		v9.58c0,0.79,0.14,1.32,0.41,1.59s0.8,0.41,1.59,0.41h4c0.79,0,1.32-0.14,1.59-0.41s0.41-0.8,0.41-1.59v-6.54l7.49-3.95v10.49
		c0,0.79,0.14,1.32,0.41,1.59s0.8,0.41,1.59,0.41h4.04c0.79,0,1.32-0.14,1.59-0.41c0.27-0.27,0.41-0.8,0.41-1.59V44.83z"/>
	<path d="M461.95,60.14c-0.33,0.03-0.83,0.05-1.5,0.05c-2.91,0-5.24-1.07-6.99-3.22c-1.45-1.76-2.18-3.83-2.18-6.22
		c0-3.39,0.95-6.09,2.86-8.08c1.7-1.79,3.92-2.68,6.68-2.68c2.82,0,5.03,0.91,6.63,2.72c1.39,1.54,2.09,3.56,2.09,6.04v9.54
		c0,4.18-1.18,7.33-3.54,9.45c-1.82,1.63-4.12,2.45-6.9,2.45c-2,0-4.01-0.62-6.04-1.86v-6.49c1.97,1.15,3.77,1.73,5.4,1.73
		C460.46,63.54,461.62,62.41,461.95,60.14z M462.04,48.47c0-0.97-0.41-1.45-1.23-1.45c-1.45,0-2.18,1.15-2.18,3.45
		c0,2.27,0.76,3.41,2.27,3.41c0.48,0,0.86-0.09,1.13-0.27V48.47z"/>
	<path d="M489.88,58.28c0,2.6-0.54,4.89-1.61,6.86c-1.08,1.97-2.57,3.41-4.47,4.31c-1.36,0.64-2.82,0.95-4.36,0.95
		c-2.06,0-4.07-0.54-6.04-1.63v-6.49c1.6,0.91,3.15,1.36,4.63,1.36c0.61,0,1.17-0.08,1.68-0.23c1.79-0.58,2.68-2.1,2.68-4.59V44.88
		l7.49-4V58.28z"/>
	<path d="M494.43,61.55l3.77-7.27h6.31c0.91,0,1.36-0.45,1.36-1.36c0-2.6-1.38-4.69-4.13-6.27l3.68-6.31
		c4.63,2.69,7.24,6.3,7.81,10.81c0.18,1.36,0.45,2.23,0.82,2.59c0.36,0.36,1.1,0.54,2.22,0.54h3.27v7.27h-3.59
		c-2.06,0-3.88-0.45-5.45-1.36c-1.18,0.91-2.71,1.36-4.59,1.36H494.43z"/>
	<path d="M518.63,61.55v-7.27h2.41c1.15,0,1.93-0.22,2.34-0.66c0.41-0.44,0.61-1.26,0.61-2.48v-14.9l7.49-4v18.94
		c0,3.21-0.98,5.77-2.95,7.68c-1.82,1.79-4.21,2.68-7.18,2.68H518.63z"/>
	<path d="M539.66,61.55v-25.3l7.49-4v29.29H539.66z"/>
	<path d="M595.39,61.55c-0.76,2.85-2.48,5.03-5.18,6.54c-2.48,1.39-5.63,2.09-9.45,2.09c-5.3,0-9.26-1.5-11.9-4.5
		c-1.97-2.24-2.95-4.97-2.95-8.17c0-2.24,0.5-4.22,1.5-5.95l7.08-1.5c-1.03,1.97-1.54,4.01-1.54,6.13c0,4.48,2.6,6.72,7.81,6.72
		c3.21,0,5.37-0.56,6.49-1.68l-0.54-0.14c-2.94-0.45-5.25-1.79-6.95-4c-1.45-1.88-2.18-4-2.18-6.36c0-3.39,0.95-6.09,2.86-8.08
		c1.7-1.79,3.92-2.68,6.68-2.68c2.82,0,5.03,0.91,6.63,2.72c1.39,1.54,2.09,3.56,2.09,6.04v5.54h4.54v7.27H595.39z M582.12,38.16
		c-1.12,0-2.03-0.36-2.72-1.07c-0.7-0.71-1.04-1.63-1.04-2.75c0-1.12,0.35-2.02,1.04-2.7c0.7-0.68,1.6-1.02,2.72-1.02
		s2.02,0.34,2.7,1.02s1.02,1.58,1.02,2.7c0,1.15-0.34,2.07-1.02,2.77C584.14,37.81,583.24,38.16,582.12,38.16z M588.35,54.1v-5.63
		c0-0.97-0.41-1.45-1.23-1.45c-1.45,0-2.18,1.15-2.18,3.45c0,1.88,0.76,3.01,2.27,3.41L588.35,54.1z M590.3,38.16
		c-1.12,0-2.03-0.36-2.72-1.07c-0.7-0.71-1.04-1.63-1.04-2.75c0-1.12,0.35-2.02,1.04-2.7c0.7-0.68,1.6-1.02,2.72-1.02
		s2.02,0.34,2.7,1.02s1.02,1.58,1.02,2.7c0,1.15-0.34,2.07-1.02,2.77C592.32,37.81,591.42,38.16,590.3,38.16z"/>
	<path d="M602.42,65.22c1.12,0,2.02,0.34,2.7,1.02c0.68,0.68,1.02,1.58,1.02,2.7c0,1.15-0.34,2.07-1.02,2.77
		c-0.68,0.7-1.58,1.04-2.7,1.04c-1.12,0-2.03-0.36-2.73-1.07c-0.7-0.71-1.04-1.63-1.04-2.75c0-1.12,0.35-2.02,1.04-2.7
		C600.4,65.57,601.3,65.22,602.42,65.22z M615.19,54.28h4.22v7.27h-4.91c-1.94,0-3.62-0.45-5.04-1.36
		c-1.48,0.91-3.18,1.36-5.09,1.36h-4.91v-7.27h4.22c0.79,0,1.32-0.14,1.59-0.41s0.41-0.8,0.41-1.59v-7.45l7.49-3.95v11.4
		c0,0.79,0.14,1.32,0.41,1.59S614.4,54.28,615.19,54.28z M610.6,65.22c1.12,0,2.02,0.34,2.7,1.02s1.02,1.58,1.02,2.7
		c0,1.15-0.34,2.07-1.02,2.77c-0.68,0.7-1.58,1.04-2.7,1.04c-1.12,0-2.03-0.36-2.72-1.07c-0.7-0.71-1.04-1.63-1.04-2.75
		c0-1.12,0.35-2.02,1.04-2.7C608.57,65.57,609.48,65.22,610.6,65.22z"/>
	<path d="M618.5,61.55v-7.27h4.68c0.79,0,1.32-0.14,1.59-0.41s0.41-0.8,0.41-1.59v-5.63l7.49-3.95v9.58c0,0.79,0.14,1.32,0.41,1.59
		s0.8,0.41,1.59,0.41h4c0.79,0,1.32-0.14,1.59-0.41s0.41-0.8,0.41-1.59v-6.54l7.49-3.95v10.49c0,0.79,0.14,1.32,0.41,1.59
		s0.8,0.41,1.59,0.41h4.04c0.79,0,1.32-0.14,1.59-0.41s0.41-0.8,0.41-1.59v-7.45l7.49-3.95v10.26c0,1.21,0.2,2.04,0.61,2.48
		c0.41,0.44,1.19,0.66,2.34,0.66h3.72v7.27h-4.04c-2.3,0-4.28-0.54-5.95-1.63c-1.36,1-3.06,1.54-5.09,1.63h-5.81
		c-1.91,0-3.6-0.45-5.09-1.36c-1.27,0.82-2.8,1.27-4.59,1.36h-5.81c-1.91,0-3.6-0.45-5.09-1.36c-1.42,0.91-3.1,1.36-5.04,1.36H618.5
		z"/>
	<path d="M685.17,54.28h4.22v7.27h-4.91c-1.94,0-3.62-0.45-5.04-1.36c-1.48,0.91-3.18,1.36-5.09,1.36h-4.91v-7.27h4.22
		c0.79,0,1.32-0.14,1.59-0.41s0.41-0.8,0.41-1.59v-7.45l7.49-3.95v11.4c0,0.79,0.14,1.32,0.41,1.59S684.38,54.28,685.17,54.28z
		 M677.77,37.25c-1.12,0-2.03-0.36-2.72-1.07c-0.7-0.71-1.04-1.63-1.04-2.75c0-1.12,0.35-2.02,1.04-2.7s1.6-1.02,2.72-1.02
		s2.02,0.34,2.7,1.02c0.68,0.68,1.02,1.58,1.02,2.7c0,1.15-0.34,2.07-1.02,2.77C679.79,36.9,678.89,37.25,677.77,37.25z"/>
	<path d="M690.62,37.25c-1.12,0-2.03-0.36-2.73-1.07c-0.7-0.71-1.04-1.63-1.04-2.75c0-1.12,0.35-2.02,1.04-2.7
		c0.7-0.68,1.6-1.02,2.73-1.02c1.12,0,2.02,0.34,2.7,1.02c0.68,0.68,1.02,1.58,1.02,2.7c0,1.15-0.34,2.07-1.02,2.77
		C692.64,36.9,691.74,37.25,690.62,37.25z M688.49,61.55v-7.27h4.22c0.79,0,1.32-0.14,1.59-0.41s0.41-0.8,0.41-1.59v-7.45l7.49-3.95
		v11.76c0,2.88-0.91,5.13-2.73,6.77c-1.57,1.42-3.6,2.13-6.08,2.13H688.49z M698.8,37.25c-1.12,0-2.03-0.36-2.73-1.07
		c-0.7-0.71-1.04-1.63-1.04-2.75c0-1.12,0.35-2.02,1.04-2.7s1.6-1.02,2.73-1.02c1.12,0,2.02,0.34,2.7,1.02
		c0.68,0.68,1.02,1.58,1.02,2.7c0,1.15-0.34,2.07-1.02,2.77C700.82,36.9,699.92,37.25,698.8,37.25z"/>
</g>
<g>
	<path d="M521.27,156.47c-1.33,0.83-2.78,1.24-4.32,1.24c-2.21,0-3.88-0.87-5.01-2.62c-0.87-1.33-1.31-2.97-1.31-4.9
		c0-2.21,0.58-4.04,1.75-5.5c1.12-1.4,2.57-2.09,4.35-2.09c1.53,0,2.84,0.44,3.93,1.31l-0.55,0.71c-1.03-0.6-2.09-0.9-3.2-0.9
		c-1.53,0-2.75,0.63-3.66,1.89c-0.83,1.18-1.24,2.74-1.24,4.67c0,2.05,0.53,3.66,1.59,4.83c0.9,0.98,2.04,1.47,3.4,1.47
		c1.12,0,2.12-0.21,3.01-0.64v-4.92h-2.62v-1.15h3.89V156.47z"/>
	<path d="M532.98,152.61h-7.54c0.03,1.27,0.47,2.3,1.33,3.08c0.8,0.69,1.8,1.04,3.01,1.04c1.03,0,1.92-0.28,2.69-0.83l0.44,0.71
		c-0.92,0.74-2.09,1.1-3.5,1.1c-1.61,0-2.91-0.55-3.89-1.66c-0.87-1-1.31-2.26-1.31-3.79c0-1.63,0.47-2.98,1.4-4.07
		c0.86-0.98,1.91-1.47,3.15-1.47c1.49,0,2.61,0.65,3.36,1.95c0.57,0.98,0.85,2.19,0.85,3.61V152.61z M525.46,151.69h6.37
		c-0.03-1.27-0.31-2.26-0.85-2.96c-0.54-0.7-1.28-1.05-2.23-1.05c-0.89,0-1.64,0.37-2.25,1.12
		C525.88,149.55,525.53,150.51,525.46,151.69z"/>
	<path d="M536.86,148.17c1.06-0.97,2.25-1.45,3.59-1.45c1.26,0,2.23,0.41,2.92,1.22c0.67,0.77,1.01,1.85,1.01,3.24v6.26h-1.08v-6.14
		c0-2.39-1.04-3.59-3.13-3.59c-1.35,0-2.42,0.53-3.22,1.59v8.14h-1.08V147h0.9L536.86,148.17z"/>
	<path d="M555.93,152.61h-7.54c0.03,1.27,0.47,2.3,1.33,3.08c0.8,0.69,1.8,1.04,3.01,1.04c1.03,0,1.92-0.28,2.69-0.83l0.44,0.71
		c-0.92,0.74-2.08,1.1-3.5,1.1c-1.61,0-2.91-0.55-3.89-1.66c-0.87-1-1.31-2.26-1.31-3.79c0-1.63,0.47-2.98,1.4-4.07
		c0.86-0.98,1.91-1.47,3.15-1.47c1.49,0,2.61,0.65,3.36,1.95c0.57,0.98,0.85,2.19,0.85,3.61V152.61z M548.41,151.69h6.37
		c-0.03-1.27-0.31-2.26-0.85-2.96c-0.54-0.7-1.28-1.05-2.23-1.05c-0.89,0-1.64,0.37-2.25,1.12
		C548.83,149.55,548.49,150.51,548.41,151.69z"/>
	<path d="M559.82,148.17c1.07-0.97,2.09-1.45,3.06-1.45c1.04,0,1.82,0.31,2.35,0.92l-0.9,0.71c-0.51-0.41-1.07-0.62-1.7-0.62
		c-0.95,0-1.86,0.52-2.71,1.56v8.14h-1.08V147h0.9L559.82,148.17z"/>
	<path d="M574.42,157.44h-0.78l-0.21-1.17c-1.03,0.97-2.25,1.45-3.66,1.45c-1.03,0-1.86-0.29-2.5-0.87
		c-0.64-0.58-0.95-1.35-0.95-2.3c0-2.39,1.69-3.59,5.06-3.59h1.96v-0.18c0-2.04-0.98-3.06-2.94-3.06c-1,0-1.98,0.35-2.94,1.04
		l-0.44-0.64c0.92-0.92,2.13-1.38,3.63-1.38c1.21,0,2.14,0.37,2.79,1.12c0.65,0.74,0.98,1.81,0.98,3.19V157.44z M573.34,151.87
		h-1.77c-1.44,0-2.47,0.19-3.09,0.57c-0.62,0.38-0.93,1.03-0.93,1.93c0,0.74,0.23,1.31,0.68,1.73c0.45,0.41,1.08,0.62,1.87,0.62
		c0.64,0,1.28-0.16,1.91-0.47c0.63-0.31,1.07-0.69,1.33-1.14V151.87z"/>
	<path d="M579.09,142.6v14.83h-1.08V143.2L579.09,142.6z"/>
	<path d="M594.5,156.29c0.2-0.55,0.54-1.49,1.04-2.81c1.78-4.81,3.12-8.35,4.03-10.6h1.43v14.56h-1.27v-12.21
		c-1.27,3.65-2.78,7.72-4.53,12.21h-1.38c-1.75-4.49-3.26-8.56-4.53-12.21v12.21h-1.27v-14.56h1.5c0.78,2.01,1.99,5.24,3.61,9.68
		l0.21,0.55C593.88,154.62,594.27,155.68,594.5,156.29z"/>
	<path d="M604.74,143.43c0-0.23,0.08-0.43,0.24-0.59c0.16-0.16,0.36-0.24,0.59-0.24c0.23,0,0.43,0.08,0.59,0.24
		c0.16,0.16,0.24,0.36,0.24,0.59s-0.08,0.43-0.24,0.59s-0.36,0.24-0.59,0.24c-0.23,0-0.42-0.08-0.59-0.24
		S604.74,143.66,604.74,143.43z M606.09,147v10.44h-1.08V147H606.09z"/>
	<path d="M617.39,157.44l-0.21-1.1c-0.77,0.92-1.86,1.38-3.29,1.38c-1.47,0-2.66-0.57-3.56-1.73c-0.77-1-1.15-2.23-1.15-3.7
		c0-1.78,0.52-3.19,1.56-4.23c0.87-0.89,1.98-1.33,3.31-1.33c1.29,0,2.3,0.44,3.04,1.33v-4.85l1.08-0.6v14.83H617.39z
		 M617.09,155.16v-5.82c-0.25-0.49-0.64-0.89-1.18-1.18c-0.54-0.3-1.13-0.45-1.76-0.45c-1.1,0-2.02,0.44-2.74,1.31
		c-0.67,0.83-1.01,1.89-1.01,3.17c0,1.49,0.4,2.65,1.2,3.5c0.67,0.69,1.52,1.04,2.53,1.04
		C615.53,156.73,616.52,156.21,617.09,155.16z"/>
	<path d="M625.39,152.38h-4.85v-0.92h4.85V152.38z"/>
	<path d="M624.82,142.88h1.31l4.19,7.64l4.19-7.64h1.33l-4.9,8.88v5.68h-1.24v-5.68L624.82,142.88z"/>
	<path d="M644.55,152.61h-7.54c0.03,1.27,0.47,2.3,1.33,3.08c0.8,0.69,1.8,1.04,3.01,1.04c1.03,0,1.92-0.28,2.69-0.83l0.44,0.71
		c-0.92,0.74-2.08,1.1-3.5,1.1c-1.61,0-2.91-0.55-3.89-1.66c-0.87-1-1.31-2.26-1.31-3.79c0-1.63,0.47-2.98,1.4-4.07
		c0.86-0.98,1.91-1.47,3.15-1.47c1.49,0,2.61,0.65,3.36,1.95c0.57,0.98,0.85,2.19,0.85,3.61V152.61z M637.03,151.69h6.37
		c-0.03-1.27-0.31-2.26-0.85-2.96c-0.54-0.7-1.28-1.05-2.23-1.05c-0.89,0-1.64,0.37-2.25,1.12
		C637.45,149.55,637.11,150.51,637.03,151.69z"/>
	<path d="M654.85,157.44h-0.78l-0.21-1.17c-1.03,0.97-2.25,1.45-3.66,1.45c-1.03,0-1.86-0.29-2.5-0.87
		c-0.64-0.58-0.96-1.35-0.96-2.3c0-2.39,1.69-3.59,5.06-3.59h1.96v-0.18c0-2.04-0.98-3.06-2.94-3.06c-1,0-1.98,0.35-2.94,1.04
		l-0.44-0.64c0.92-0.92,2.13-1.38,3.63-1.38c1.21,0,2.14,0.37,2.79,1.12c0.65,0.74,0.98,1.81,0.98,3.19V157.44z M653.77,151.87H652
		c-1.44,0-2.47,0.19-3.09,0.57c-0.62,0.38-0.93,1.03-0.93,1.93c0,0.74,0.23,1.31,0.68,1.73s1.08,0.62,1.88,0.62
		c0.64,0,1.28-0.16,1.91-0.47c0.63-0.31,1.07-0.69,1.33-1.14V151.87z"/>
	<path d="M659.43,148.17c1.07-0.97,2.09-1.45,3.06-1.45c1.04,0,1.83,0.31,2.35,0.92l-0.9,0.71c-0.51-0.41-1.07-0.62-1.7-0.62
		c-0.95,0-1.86,0.52-2.71,1.56v8.14h-1.08V147h0.9L659.43,148.17z"/>
	<path d="M672.43,142.88h8.23v1.13h-6.97v5.29h5.87v1.13h-5.87v5.89h7.27v1.13h-8.53V142.88z"/>
	<path d="M691.31,147l-3.43,4.94l3.61,5.5h-1.22l-3.08-4.67l-3.15,4.67h-1.24l3.68-5.43L683.3,147h1.22l2.67,4.16l2.9-4.16H691.31z"
		/>
	<path d="M701.04,157.44h-0.78l-0.21-1.17c-1.03,0.97-2.25,1.45-3.66,1.45c-1.03,0-1.86-0.29-2.5-0.87
		c-0.64-0.58-0.96-1.35-0.96-2.3c0-2.39,1.69-3.59,5.06-3.59h1.96v-0.18c0-2.04-0.98-3.06-2.94-3.06c-1,0-1.98,0.35-2.94,1.04
		l-0.44-0.64c0.92-0.92,2.13-1.38,3.63-1.38c1.21,0,2.14,0.37,2.79,1.12c0.65,0.74,0.98,1.81,0.98,3.19V157.44z M699.96,151.87
		h-1.77c-1.44,0-2.47,0.19-3.09,0.57c-0.62,0.38-0.93,1.03-0.93,1.93c0,0.74,0.23,1.31,0.68,1.73c0.45,0.41,1.08,0.62,1.87,0.62
		c0.64,0,1.28-0.16,1.91-0.47c0.63-0.31,1.07-0.69,1.33-1.14V151.87z"/>
	<path d="M705.62,148.12c1.18-0.94,2.33-1.4,3.45-1.4c1.26,0,2.23,0.51,2.92,1.52c1.17-1.01,2.44-1.52,3.82-1.52
		c1.24,0,2.21,0.41,2.9,1.24c0.66,0.78,0.99,1.86,0.99,3.22v6.26h-1.08v-6.14c0-2.39-1.03-3.59-3.08-3.59
		c-1.07,0-2.11,0.46-3.11,1.38c0.23,0.61,0.34,1.31,0.34,2.09v6.26h-1.08v-6.14c0-2.39-0.96-3.59-2.88-3.59
		c-1.23,0-2.26,0.54-3.11,1.63v8.1h-1.08V147h0.9L705.62,148.12z"/>
	<path d="M723.03,159.37c0.57-0.51,0.85-1.04,0.85-1.61c0-0.08-0.02-0.19-0.05-0.34c-0.18,0.15-0.36,0.23-0.53,0.23
		c-0.25,0-0.46-0.09-0.63-0.26c-0.18-0.18-0.26-0.39-0.26-0.66c0-0.58,0.31-0.87,0.92-0.87c0.32,0,0.59,0.15,0.79,0.44
		c0.21,0.29,0.31,0.65,0.31,1.08c0,0.97-0.43,1.73-1.29,2.3L723.03,159.37z"/>
	<path d="M732.55,157.78v-13.34h1.08v12.77L732.55,157.78z"/>
	<path d="M740.41,157.44c-1.43,0-2.54-0.43-3.33-1.29c-0.61-0.67-0.92-1.46-0.92-2.37c0-1.46,0.68-2.51,2.05-3.15
		c-1.18-0.64-1.77-1.6-1.77-2.88c0-0.95,0.37-1.74,1.12-2.37c0.74-0.63,1.67-0.94,2.79-0.94h1.72v0.97h-1.72
		c-0.83,0-1.51,0.22-2.04,0.66s-0.79,1-0.79,1.69c0,0.71,0.26,1.28,0.79,1.73c0.53,0.44,1.21,0.67,2.04,0.67h1.15v0.97h-1.1
		c-0.94,0-1.7,0.25-2.29,0.75c-0.59,0.5-0.89,1.14-0.89,1.92c0,0.8,0.29,1.45,0.87,1.94c0.58,0.5,1.35,0.75,2.3,0.75h2.05l0.58,0.97
		H740.41z"/>
	<path d="M748.76,157.44c-1.43,0-2.54-0.43-3.33-1.29c-0.61-0.67-0.92-1.46-0.92-2.37c0-1.46,0.68-2.51,2.05-3.15
		c-1.18-0.64-1.77-1.6-1.77-2.88c0-0.95,0.37-1.74,1.12-2.37c0.74-0.63,1.67-0.94,2.79-0.94h1.72v0.97h-1.72
		c-0.83,0-1.51,0.22-2.04,0.66s-0.79,1-0.79,1.69c0,0.71,0.26,1.28,0.79,1.73c0.53,0.44,1.21,0.67,2.04,0.67h1.15v0.97h-1.1
		c-0.94,0-1.7,0.25-2.29,0.75c-0.59,0.5-0.89,1.14-0.89,1.92c0,0.8,0.29,1.45,0.87,1.94c0.58,0.5,1.35,0.75,2.3,0.75h2.05l0.58,0.97
		H748.76z"/>
	<path d="M758.05,157.78v-10.6c0-1.18-0.64-1.77-1.91-1.77h-3.63v-0.97h3.7c0.92,0,1.64,0.24,2.15,0.72s0.77,1.15,0.77,2.01v10.03
		L758.05,157.78z"/>
	<path d="M771.21,142.88h1.52l5.15,14.56h-1.29l-1.27-3.5h-6.69l-1.24,3.5h-1.36L771.21,142.88z M771.95,144.15l-2.99,8.72h6
		L771.95,144.15z"/>
	<path d="M781.56,157.44h-1.26v-14.56h1.26v6.42h7.77v-6.42h1.26v14.56h-1.26v-7.02h-7.77V157.44z"/>
	<path d="M803.16,152.38h-4.85v-0.92h4.85V152.38z"/>
	<path d="M810.29,157.78v-10.6c0-0.86,0.26-1.53,0.77-2.01s1.23-0.72,2.15-0.72h3.7v0.97h-3.63c-1.27,0-1.91,0.59-1.91,1.77v10.03
		L810.29,157.78z"/>
	<path d="M819.67,155.39l-1.26-1.27l1.26-1.24l1.24,1.24L819.67,155.39z"/>
	<path d="M823.33,157.78v-10.6c0-0.86,0.26-1.53,0.77-2.01s1.23-0.72,2.15-0.72h3.7v0.97h-3.63c-1.27,0-1.91,0.59-1.91,1.77v10.03
		L823.33,157.78z"/>
	<path d="M835.7,157.44c-1.43,0-2.54-0.43-3.33-1.29c-0.61-0.67-0.92-1.46-0.92-2.37c0-1.46,0.68-2.51,2.05-3.15
		c-1.18-0.64-1.77-1.6-1.77-2.88c0-0.95,0.37-1.74,1.12-2.37c0.74-0.63,1.67-0.94,2.79-0.94h1.72v0.97h-1.72
		c-0.83,0-1.51,0.22-2.04,0.66s-0.79,1-0.79,1.69c0,0.71,0.26,1.28,0.79,1.73c0.53,0.44,1.21,0.67,2.04,0.67h1.15v0.97h-1.1
		c-0.94,0-1.7,0.25-2.29,0.75c-0.59,0.5-0.89,1.14-0.89,1.92c0,0.8,0.29,1.45,0.87,1.94c0.58,0.5,1.35,0.75,2.3,0.75h2.05l0.58,0.97
		H835.7z"/>
	<path d="M849.46,142.88h1.52l5.15,14.56h-1.29l-1.27-3.5h-6.69l-1.24,3.5h-1.36L849.46,142.88z M850.19,144.15l-2.99,8.72h6
		L850.19,144.15z"/>
	<path d="M858.54,142.88c1.43-0.18,2.53-0.28,3.31-0.28c2.45,0,4.33,0.75,5.63,2.25c1.12,1.29,1.68,3.01,1.68,5.15
		c0,2.59-0.7,4.56-2.09,5.91c-1.24,1.2-2.94,1.79-5.11,1.79c-0.84,0-1.99-0.09-3.43-0.28V142.88z M859.81,156.54
		c0.74,0.09,1.45,0.14,2.14,0.14c1.95,0,3.43-0.62,4.44-1.86c0.93-1.13,1.4-2.71,1.4-4.71c0-2.19-0.64-3.87-1.91-5.04
		c-1.04-0.95-2.37-1.43-3.98-1.43c-0.94,0-1.63,0.05-2.09,0.14V156.54z"/>
</g>
<g>
	<path d="M491.5,140.07v19.34h-0.99v-19.34H491.5z"/>
</g>
<g>
	<path d="M87.74,164.68v-4.32c0-1.27,0.37-2.25,1.1-2.92c0.69-0.64,1.66-0.97,2.92-0.97c-0.97-0.87-1.45-2.21-1.45-4
		c0-1.64,0.41-2.91,1.24-3.8c0.74-0.8,1.71-1.2,2.92-1.2c1.15,0,2.06,0.35,2.73,1.04s1,1.63,1,2.83v2.21c0,1.18-0.33,2.12-0.99,2.81
		c-0.66,0.69-1.56,1.05-2.71,1.08h-2.83c-1.9,0-2.85,0.98-2.85,2.94v3.73L87.74,164.68z M97.12,151.53c0-2.05-0.88-3.08-2.65-3.08
		c-0.97,0-1.72,0.36-2.27,1.07c-0.54,0.71-0.82,1.7-0.82,2.96c0,1.29,0.28,2.29,0.83,3.01c0.51,0.66,1.19,0.99,2.05,0.99
		c1.9,0,2.85-0.98,2.85-2.94V151.53z"/>
	<path d="M101.54,157.78v-10.6c0-0.86,0.26-1.53,0.77-2.01c0.51-0.48,1.23-0.72,2.15-0.72h3.7v0.97h-3.63
		c-1.27,0-1.91,0.59-1.91,1.77v10.03L101.54,157.78z"/>
	<path d="M110.92,155.39l-1.27-1.27l1.27-1.24l1.24,1.24L110.92,155.39z"/>
	<path d="M114.58,157.78v-10.6c0-0.86,0.26-1.53,0.77-2.01c0.51-0.48,1.23-0.72,2.15-0.72h3.7v0.97h-3.63
		c-1.27,0-1.91,0.59-1.91,1.77v10.03L114.58,157.78z"/>
	<path d="M126.95,157.44c-1.43,0-2.54-0.43-3.33-1.29c-0.61-0.67-0.92-1.46-0.92-2.37c0-1.46,0.68-2.51,2.05-3.15
		c-1.18-0.64-1.77-1.6-1.77-2.88c0-0.95,0.37-1.74,1.12-2.37c0.74-0.63,1.67-0.94,2.79-0.94h1.73v0.97h-1.73
		c-0.83,0-1.51,0.22-2.04,0.66c-0.53,0.44-0.79,1-0.79,1.69c0,0.71,0.26,1.28,0.79,1.73c0.53,0.44,1.21,0.67,2.04,0.67h1.15v0.97
		h-1.1c-0.94,0-1.7,0.25-2.29,0.75c-0.59,0.5-0.89,1.14-0.89,1.92c0,0.8,0.29,1.45,0.87,1.94c0.58,0.5,1.35,0.75,2.3,0.75h2.05
		l0.57,0.97H126.95z"/>
	<path d="M140.61,152.38h-4.85v-0.92h4.85V152.38z"/>
	<path d="M145.56,157.44v-0.97h4.05v0.97H145.56z"/>
	<path d="M151.01,150.88c0.32-1.44,1-2.54,2.05-3.31c0.83-0.6,1.76-0.9,2.81-0.9c1.47,0,2.71,0.54,3.7,1.61
		c0.95,1.01,1.43,2.31,1.43,3.89v1.43c0,1.27-0.38,2.25-1.15,2.94c-0.66,0.6-1.53,0.9-2.62,0.9h-2.07c-0.52,0-1.01-0.08-1.47-0.23
		c-0.46,0.15-0.95,0.23-1.47,0.23h-3.98v-0.97h3.96c-1.15-0.86-1.73-2.01-1.73-3.45C150.46,152.19,150.64,151.48,151.01,150.88z
		 M153.68,156.27c1.55-0.51,2.32-1.59,2.32-3.24c0-0.81-0.21-1.46-0.63-1.94c-0.42-0.48-0.99-0.72-1.69-0.72
		c-0.71,0-1.27,0.24-1.69,0.72s-0.63,1.13-0.63,1.94C151.35,154.68,152.13,155.76,153.68,156.27z M159.91,153.41v-1.24
		c0-1.49-0.48-2.66-1.45-3.52c-0.75-0.67-1.64-1.01-2.67-1.01c-1.56,0-2.7,0.68-3.4,2.05c0.43-0.15,0.86-0.23,1.29-0.23
		c0.98,0,1.76,0.33,2.35,0.98c0.58,0.65,0.87,1.51,0.87,2.59c0,1.46-0.58,2.61-1.75,3.45h1.96
		C158.97,156.47,159.91,155.45,159.91,153.41z"/>
	<path d="M164.33,157.78v-13.34h1.08v12.77L164.33,157.78z"/>
	<path d="M172.19,157.44c-1.43,0-2.54-0.43-3.33-1.29c-0.61-0.67-0.92-1.46-0.92-2.37c0-1.46,0.68-2.51,2.05-3.15
		c-1.18-0.64-1.77-1.6-1.77-2.88c0-0.95,0.37-1.74,1.12-2.37c0.74-0.63,1.67-0.94,2.79-0.94h1.73v0.97h-1.73
		c-0.83,0-1.51,0.22-2.04,0.66c-0.53,0.44-0.79,1-0.79,1.69c0,0.71,0.26,1.28,0.79,1.73c0.53,0.44,1.21,0.67,2.04,0.67h1.15v0.97
		h-1.1c-0.94,0-1.7,0.25-2.29,0.75c-0.59,0.5-0.89,1.14-0.89,1.92c0,0.8,0.29,1.45,0.87,1.94c0.58,0.5,1.35,0.75,2.3,0.75h2.05
		l0.57,0.97H172.19z"/>
	<path d="M180.54,157.44c-1.43,0-2.54-0.43-3.33-1.29c-0.61-0.67-0.92-1.46-0.92-2.37c0-1.46,0.68-2.51,2.05-3.15
		c-1.18-0.64-1.77-1.6-1.77-2.88c0-0.95,0.37-1.74,1.12-2.37c0.74-0.63,1.67-0.94,2.79-0.94h1.73v0.97h-1.73
		c-0.83,0-1.51,0.22-2.04,0.66c-0.53,0.44-0.79,1-0.79,1.69c0,0.71,0.26,1.28,0.79,1.73c0.53,0.44,1.21,0.67,2.04,0.67h1.15v0.97
		h-1.1c-0.94,0-1.7,0.25-2.29,0.75c-0.59,0.5-0.89,1.14-0.89,1.92c0,0.8,0.29,1.45,0.87,1.94c0.58,0.5,1.35,0.75,2.3,0.75h2.05
		l0.57,0.97H180.54z"/>
	<path d="M189.83,157.78v-10.6c0-1.18-0.64-1.77-1.91-1.77h-3.63v-0.97h3.7c0.92,0,1.64,0.24,2.15,0.72
		c0.51,0.48,0.77,1.15,0.77,2.01v10.03L189.83,157.78z"/>
	<path d="M199.81,155.94c0.54,0,0.8,0.25,0.8,0.76c0,0.57-0.27,0.85-0.8,0.85c-0.57,0-0.85-0.39-0.85-1.17v-2l0.67-0.21v1.77H199.81
		z"/>
	<path d="M210.51,141.87l0.62-0.34v1.33c0,0.35-0.11,0.64-0.32,0.85s-0.5,0.32-0.85,0.32s-0.64-0.11-0.87-0.34
		c-0.26,0.23-0.56,0.34-0.9,0.34c-0.35,0-0.64-0.11-0.85-0.32s-0.32-0.5-0.32-0.85v-0.44l0.62-0.35v0.78c0,0.37,0.19,0.55,0.57,0.55
		c0.37,0,0.55-0.15,0.55-0.46v-0.85l0.62-0.35v1.2c0,0.31,0.19,0.46,0.57,0.46c0.37,0,0.55-0.18,0.55-0.55V141.87z"/>
	<path d="M202.37,164.68v-4.32c0-1.27,0.37-2.25,1.1-2.92c0.69-0.64,1.66-0.97,2.92-0.97c-0.97-0.87-1.45-2.21-1.45-4
		c0-1.64,0.41-2.91,1.24-3.8c0.74-0.8,1.71-1.2,2.92-1.2c1.15,0,2.06,0.35,2.73,1.04s1,1.63,1,2.83v2.21c0,1.18-0.33,2.12-0.99,2.81
		c-0.66,0.69-1.56,1.05-2.71,1.08h-2.83c-1.9,0-2.85,0.98-2.85,2.94v3.73L202.37,164.68z M211.75,151.53c0-2.05-0.88-3.08-2.65-3.08
		c-0.97,0-1.72,0.36-2.27,1.07c-0.54,0.71-0.82,1.7-0.82,2.96c0,1.29,0.28,2.29,0.83,3.01c0.51,0.66,1.19,0.99,2.05,0.99
		c1.9,0,2.85-0.98,2.85-2.94V151.53z"/>
	<path d="M220.51,157.44c-1.17,0-2.09-0.35-2.76-1.05c-0.67-0.7-1.01-1.64-1.01-2.84v-10.37l1.08-0.58v10.92
		c0,1.96,0.95,2.94,2.85,2.94h0.99v0.97H220.51z"/>
	<path d="M229.58,156.08l0.11,0.05c0.44,0.23,0.91,0.35,1.4,0.35h6.42v0.97h-6.42c-0.78,0-1.52-0.22-2.21-0.67
		c-0.69,0.44-1.43,0.67-2.21,0.67h-6.39v-0.97h6.39c0.51-0.02,0.97-0.13,1.4-0.35c-0.69-0.41-1.42-0.99-2.19-1.73
		c-1.01-0.97-1.86-1.95-2.55-2.94v-0.64c1.61-2.22,3.46-3.33,5.54-3.33c2.08,0,3.94,1.12,5.57,3.36v0.62
		C233.01,153.33,231.39,154.87,229.58,156.08z M228.89,155.6c0.94-0.63,1.84-1.37,2.73-2.23c0.88-0.86,1.51-1.61,1.9-2.25
		c-1.35-1.78-2.91-2.67-4.69-2.67c-1.64,0-3.15,0.89-4.53,2.67C225.18,152.59,226.71,154.08,228.89,155.6z"/>
	<path d="M236.13,157.44v-0.97h0.99c1.9,0,2.85-0.98,2.85-2.94v-10.35l1.08-0.58v10.95c0,1.24-0.36,2.22-1.08,2.92
		c-0.67,0.64-1.57,0.97-2.69,0.97H236.13z"/>
	<path d="M245.19,157.44v-14.26l1.08-0.58v14.83H245.19z"/>
	<path d="M267.25,150.33c-0.94-1.13-2.02-1.7-3.24-1.7c-0.71,0-1.27,0.23-1.69,0.68c-0.42,0.45-0.63,1.05-0.63,1.81
		c0,0.92,0.38,1.64,1.13,2.16c0.37,0.26,1.17,0.61,2.39,1.06c1.09,0.38,1.83,0.79,2.23,1.22c0.44,0.46,0.67,1.06,0.67,1.79
		c0,1.29-0.63,2.36-1.89,3.22c-1.21,0.83-2.78,1.24-4.71,1.24c-2.3,0-4.03-0.67-5.18-2.02c-0.87-1.01-1.31-2.25-1.31-3.73
		c0-1.36,0.35-2.52,1.06-3.47l1.08-0.23c-0.78,1.13-1.17,2.37-1.17,3.7c0,1.46,0.51,2.62,1.54,3.5c0.98,0.86,2.31,1.29,3.98,1.29
		c1.87,0,3.32-0.42,4.35-1.26c0.78-0.63,1.17-1.37,1.17-2.23c0-0.54-0.18-0.95-0.54-1.24c-0.36-0.29-1.15-0.65-2.36-1.08
		c-1.12-0.4-1.92-0.81-2.39-1.24c-0.75-0.64-1.13-1.53-1.13-2.67c0-1.13,0.41-2.02,1.24-2.67c0.63-0.51,1.35-0.76,2.16-0.76
		c1.27,0,2.35,0.49,3.24,1.47V150.33z M260.4,165.79c-0.49,0-0.74-0.25-0.74-0.76c0-0.49,0.25-0.74,0.74-0.74
		c0.48,0,0.71,0.25,0.71,0.74C261.11,165.54,260.87,165.79,260.4,165.79z M262.72,165.79c-0.49,0-0.74-0.25-0.74-0.76
		c0-0.49,0.25-0.74,0.74-0.74c0.48,0,0.71,0.25,0.71,0.74C263.43,165.54,263.19,165.79,262.72,165.79z"/>
	<path d="M278.75,156.47h2.92v0.97h-2.92c0,1.32-0.51,2.41-1.52,3.27c-0.86,0.74-1.86,1.1-2.99,1.1c-0.87,0-1.71-0.2-2.51-0.6v-0.97
		c0.8,0.41,1.59,0.62,2.39,0.62c1.01,0,1.88-0.37,2.6-1.1c0.63-0.64,0.94-1.4,0.94-2.28v-0.05c-0.41,0-1.05-0.02-1.91-0.05
		c-3.27-0.09-4.9-1.73-4.9-4.92c0-1.64,0.41-2.91,1.24-3.8c0.74-0.8,1.71-1.2,2.92-1.2c1.15,0,2.06,0.35,2.73,1.04s1,1.63,1,2.83
		V156.47z M277.67,151.53c0-2.05-0.88-3.08-2.65-3.08c-0.97,0-1.72,0.36-2.27,1.07c-0.54,0.71-0.82,1.7-0.82,2.96
		c0,2.48,1.27,3.8,3.82,3.96c0.41,0.03,1.05,0.05,1.91,0.05V151.53z"/>
	<path d="M288.07,156.47h0.99v0.97h-1.15c-1.52,0-2.59-0.56-3.22-1.68c-0.64,1.12-1.73,1.68-3.24,1.68h-1.15v-0.97h0.99
		c1.9,0,2.85-0.98,2.85-2.94v-5.24l1.08-0.58v5.82C285.21,155.49,286.16,156.47,288.07,156.47z M284.5,144.44
		c-0.49,0-0.74-0.25-0.74-0.76c0-0.49,0.25-0.74,0.74-0.74c0.48,0,0.71,0.25,0.71,0.74C285.21,144.19,284.98,144.44,284.5,144.44z"
		/>
	<path d="M287.67,157.44v-0.97h1.68c1.9,0,2.85-0.98,2.85-2.94v-3.4l1.08-0.58v3.98c0,1.96,0.95,2.94,2.85,2.94h0.6
		c1.9,0,2.85-0.98,2.85-2.94v-4.32l1.08-0.58v4.9c0,1.96,0.95,2.94,2.85,2.94h0.6c1.9,0,2.85-0.98,2.85-2.94v-5.24l1.08-0.58v5.82
		c0,1.96,0.95,2.94,2.85,2.94h1.68v0.97h-1.84c-1.52,0-2.6-0.56-3.24-1.68c-0.63,1.12-1.7,1.68-3.22,1.68h-0.92
		c-1.52,0-2.59-0.56-3.22-1.68c-0.64,1.12-1.73,1.68-3.24,1.68h-0.92c-1.52,0-2.59-0.56-3.22-1.68c-0.64,1.12-1.73,1.68-3.24,1.68
		H287.67z"/>
	<path d="M311.2,157.44v-0.97h0.99c1.9,0,2.85-0.98,2.85-2.94v-10.35l1.08-0.58v10.95c0,1.24-0.36,2.22-1.08,2.92
		c-0.67,0.64-1.57,0.97-2.69,0.97H311.2z"/>
	<path d="M320.27,157.44v-14.26l1.08-0.58v14.83H320.27z"/>
	<path d="M345.82,156.47h4.97v0.97h-5.5c-0.44,0-0.87-0.05-1.29-0.16c-0.41,0.11-0.84,0.16-1.29,0.16h-8.56
		c-1.1,0-1.98-0.35-2.63-1.04s-0.98-1.62-0.98-2.81v-3.24l1.08-0.58v3.63c0,2.04,0.95,3.06,2.85,3.06h7.71
		c-0.69-0.49-1.24-1.13-1.66-1.92c-0.41-0.79-0.62-1.6-0.62-2.43c0-1.49,0.4-2.65,1.2-3.5c0.74-0.77,1.7-1.15,2.9-1.15
		c1.36,0,2.42,0.49,3.17,1.47c0.61,0.83,0.92,1.89,0.92,3.17c0,0.83-0.21,1.64-0.62,2.43C347.06,155.34,346.51,155.98,345.82,156.47
		z M344,156.31l0.21-0.07c0.84-0.29,1.53-0.82,2.07-1.6c0.54-0.77,0.81-1.61,0.81-2.52c0-1.12-0.28-2.01-0.84-2.68
		c-0.56-0.67-1.31-1-2.24-1c-0.94,0-1.68,0.33-2.24,1c-0.56,0.67-0.84,1.56-0.84,2.68c0,0.9,0.27,1.74,0.81,2.52
		c0.54,0.77,1.23,1.31,2.07,1.6L344,156.31z M344.12,144.44c-0.49,0-0.74-0.25-0.74-0.76c0-0.49,0.25-0.74,0.74-0.74
		c0.48,0,0.71,0.25,0.71,0.74C344.83,144.19,344.59,144.44,344.12,144.44z"/>
	<path d="M372.8,156.47h0.99v0.97h-1.15c-1.49,0-2.56-0.55-3.22-1.66c-0.64,1.1-1.72,1.66-3.24,1.66h-9.15
		c-1.52,0-2.59-0.56-3.22-1.68c-0.64,1.12-1.73,1.68-3.24,1.68h-1.15v-0.97h0.99c1.9,0,2.85-0.98,2.85-2.94v-3.4l1.08-0.58v3.98
		c0,1.58,0.62,2.52,1.86,2.83c0.49-2.39,1.45-4.42,2.88-6.09c1.56-1.86,3.43-2.78,5.61-2.78c1.69,0,3.02,0.58,4,1.75
		c0.84,0.98,1.27,2.21,1.27,3.68v0.62C369.95,155.49,370.9,156.47,372.8,156.47z M366.06,156.47c1.87,0,2.81-1.02,2.81-3.06v-0.51
		c0-1.4-0.44-2.51-1.31-3.36c-0.77-0.74-1.72-1.1-2.85-1.1c-1.96,0-3.68,0.95-5.15,2.85c-1.1,1.41-1.92,3.14-2.44,5.18h0.07H366.06z
		"/>
	<path d="M380.18,156.47h0.99v0.97h-1.15c-1.52,0-2.59-0.56-3.22-1.68c-0.64,1.12-1.73,1.68-3.24,1.68h-1.15v-0.97h0.99
		c1.9,0,2.85-0.98,2.85-2.94v-5.24l1.08-0.58v5.82C377.33,155.49,378.28,156.47,380.18,156.47z M376.62,144.44
		c-0.49,0-0.74-0.25-0.74-0.76c0-0.49,0.25-0.74,0.74-0.74c0.48,0,0.71,0.25,0.71,0.74C377.33,144.19,377.09,144.44,376.62,144.44z"
		/>
	<path d="M379.79,157.44v-0.97h0.99c1.9,0,2.85-0.98,2.85-2.94v-10.35l1.08-0.58v10.95c0,1.24-0.36,2.22-1.08,2.92
		c-0.67,0.64-1.57,0.97-2.69,0.97H379.79z"/>
	<path d="M388.85,157.44v-14.26l1.08-0.58v14.83H388.85z"/>
	<path d="M410.15,156.43c0,1.7-0.58,3.05-1.75,4.05c-1.06,0.89-2.41,1.33-4.05,1.33c-1.92,0-3.4-0.67-4.46-2.02
		c-0.81-1.04-1.22-2.29-1.22-3.73c0-1.36,0.35-2.52,1.06-3.47l1.08-0.23c-0.78,1.13-1.17,2.37-1.17,3.7c0,1.41,0.47,2.58,1.4,3.5
		c0.87,0.86,1.98,1.29,3.31,1.29c1.56,0,2.77-0.47,3.63-1.4c0.72-0.78,1.08-1.79,1.08-3.01v-8.14l1.08-0.58V156.43z M404.47,147.02
		c-0.49,0-0.74-0.25-0.74-0.76c0-0.49,0.25-0.74,0.74-0.74c0.48,0,0.71,0.25,0.71,0.74C405.18,146.77,404.94,147.02,404.47,147.02z"
		/>
	<path d="M418.06,157.44c-1.17,0-2.09-0.35-2.76-1.05c-0.67-0.7-1.01-1.64-1.01-2.84v-10.37l1.08-0.58v10.92
		c0,1.96,0.95,2.94,2.85,2.94h0.99v0.97H418.06z"/>
	<path d="M432.83,156.47h1.03v0.97h-1.06c-1.3,0-2.34-0.15-3.1-0.45c-0.77-0.3-1.48-0.83-2.14-1.6c-1.95,1.36-4.23,2.05-6.85,2.05
		h-2.88v-0.97h2.9c3.53,0,6.29-1.24,8.28-3.73c-1.44-2.87-3.24-4.3-5.4-4.3c-1.3,0-2.55,0.66-3.73,1.98v-1.15
		c1.24-1.2,2.52-1.79,3.84-1.79c2.36,0,4.42,1.61,6.16,4.83v0.87c-0.54,0.69-1.1,1.26-1.68,1.73c0.54,0.58,1.15,0.99,1.83,1.22
		C430.71,156.36,431.65,156.47,432.83,156.47z"/>
	<path d="M440.26,156.47h0.99v0.97h-1.15c-1.52,0-2.59-0.56-3.22-1.68c-0.64,1.12-1.73,1.68-3.24,1.68h-1.15v-0.97h0.99
		c1.9,0,2.85-0.98,2.85-2.94v-5.24l1.08-0.58v5.82C437.4,155.49,438.35,156.47,440.26,156.47z M435.47,144.44
		c-0.49,0-0.74-0.25-0.74-0.76c0-0.49,0.25-0.74,0.74-0.74c0.48,0,0.71,0.25,0.71,0.74C436.19,144.19,435.95,144.44,435.47,144.44z
		 M437.8,144.44c-0.49,0-0.74-0.25-0.74-0.76c0-0.49,0.25-0.74,0.74-0.74c0.48,0,0.71,0.25,0.71,0.74
		C438.51,144.19,438.27,144.44,437.8,144.44z"/>
	<path d="M443.71,151.34c0-1.29,0.38-2.28,1.13-2.97c0.66-0.6,1.53-0.9,2.6-0.9c1.4,0,2.46,0.51,3.2,1.54
		c0.64,0.87,0.97,2.02,0.97,3.45c0,1.62-0.41,2.89-1.22,3.79c-0.72,0.78-1.66,1.17-2.83,1.17c-1.55,0-2.65-0.56-3.29-1.68
		c-0.64,1.12-1.73,1.68-3.24,1.68h-1.15v-0.97h0.99c1.9,0,2.85-0.98,2.85-2.94V151.34z M444.79,153.53c0,1.96,0.95,2.94,2.85,2.94
		c0.89,0,1.59-0.36,2.1-1.07c0.51-0.71,0.77-1.69,0.77-2.93c0-1.3-0.29-2.32-0.87-3.04c-0.54-0.66-1.27-0.99-2.21-0.99
		c-1.76,0-2.65,1.03-2.65,3.08V153.53z"/>
	<path d="M463.62,143.18l1.08-0.58v10.95c0,1.24-0.36,2.22-1.08,2.92c-0.68,0.64-1.57,0.97-2.69,0.97h-7.15l0.51-0.97h3.66v-10.3
		l1.08-0.58v10.88h1.75c1.9,0,2.85-0.98,2.85-2.94V143.18z"/>
	<path d="M468.85,157.44v-14.26l1.08-0.58v14.83H468.85z"/>
</g>
</svg>
